<?xml version="1.0" encoding="UTF-8" standalone="no" ?>
<!DOCTYPE svg PUBLIC "-//W3C//DTD SVG 1.1//EN" "http://www.w3.org/Graphics/SVG/1.1/DTD/svg11.dtd">
<svg xmlns="http://www.w3.org/2000/svg" xmlns:xlink="http://www.w3.org/1999/xlink" version="1.1" width="150" height="50" viewBox="0 135 150 50" xml:space="preserve">
<desc>Created with Fabric.js 5.2.4</desc>
<defs>
</defs>
<rect x="0" y="0" width="100%" height="100%" fill="transparent"></rect>
<g transform="matrix(1 0 0 1 75 25)" id="8b210f9b-71dd-4eaa-9e23-9f38c54e737f"  >
<rect style="stroke: none; stroke-width: 1; stroke-dasharray: none; stroke-linecap: butt; stroke-dashoffset: 0; stroke-linejoin: miter; stroke-miterlimit: 4; fill: rgb(255,255,255); fill-rule: nonzero; opacity: 1; visibility: hidden;" vector-effect="non-scaling-stroke"  x="-75" y="-25" rx="0" ry="0" width="150" height="50" />
</g>
<g transform="matrix(Infinity NaN NaN Infinity 0 0)" id="bbbd7b3d-75ec-4589-8cb4-dfbc9afb6d07"  >
</g>
<g transform="matrix(0.38 0 0 0.47 75 161.08)"  >
<g style="" vector-effect="non-scaling-stroke"   >
		<g transform="matrix(0.72 0 0 0.72 -129.68 -11.34)"  >
<path style="stroke: none; stroke-width: 1; stroke-dasharray: none; stroke-linecap: butt; stroke-dashoffset: 0; stroke-linejoin: miter; stroke-miterlimit: 4; fill: rgb(255,255,255); fill-rule: nonzero; opacity: 1;" vector-effect="non-scaling-stroke"  transform=" translate(-74.15, -50.98)" d="M 74.4746 65.0333 C 74.0297 65.0333 73.5848 64.7364 73.2879 64.2915 C 72.843 63.6986 73.1399 62.8078 73.7328 62.3629 L 93.4601 50.9416 L 74.3266 39.9652 L 53.1165 52.1284 C 52.5237 52.5733 51.6329 52.2764 51.188 51.6835 C 50.7431 51.0907 51.04 50.1998 51.6329 49.755 L 73.4368 37.1468 C 73.8817 36.8498 74.3266 36.8498 74.7715 37.1468 L 96.5754 49.755 C 97.0203 50.0519 97.3172 50.4968 97.3172 50.9417 C 97.3172 51.3866 97.0203 51.8315 96.5754 52.1285 L 75.0673 64.8855 C 74.9194 65.0335 74.6226 65.0333 74.4746 65.0333 Z" stroke-linecap="round" />
</g>
		<g transform="matrix(0.72 0 0 0.72 -129.55 2.48)"  >
<path style="stroke: none; stroke-width: 1; stroke-dasharray: none; stroke-linecap: butt; stroke-dashoffset: 0; stroke-linejoin: miter; stroke-miterlimit: 4; fill: rgb(255,255,255); fill-rule: nonzero; opacity: 1;" vector-effect="non-scaling-stroke"  transform=" translate(-74.33, -70.08)" d="M 74.4746 90.397 L 51.1869 77.0482 L 51.1869 51.0901 C 51.1869 50.3483 51.7798 49.7554 52.5216 49.7554 C 53.2635 49.7554 53.8563 50.3483 53.8563 51.0901 L 53.8574 75.4156 L 74.3266 87.2819 L 94.7958 75.4156 L 94.7948 51.0901 C 94.7948 50.3483 95.3876 49.7554 96.1295 49.7554 C 96.8713 49.7554 97.4641 50.3483 97.4641 51.0901 L 97.4641 77.0471 L 74.4746 90.397 Z" stroke-linecap="round" />
</g>
		<g transform="matrix(0.72 0 0 0.72 -129.44 3.93)"  >
<path style="stroke: none; stroke-width: 1; stroke-dasharray: none; stroke-linecap: butt; stroke-dashoffset: 0; stroke-linejoin: miter; stroke-miterlimit: 4; fill: rgb(255,255,255); fill-rule: nonzero; opacity: 1;" vector-effect="non-scaling-stroke"  transform=" translate(-74.47, -72.08)" d="M 74.4746 81.7941 C 73.7328 81.7941 73.1399 81.2013 73.1399 80.4594 L 73.1389 63.6983 C 73.1389 62.9565 73.7317 62.3636 74.4736 62.3636 C 75.2154 62.3636 75.8083 62.9565 75.8083 63.6983 L 75.8083 80.4594 C 75.8093 81.2002 75.2154 81.7941 74.4746 81.7941 Z" stroke-linecap="round" />
</g>
		<g transform="matrix(0.72 0 0 0.72 -101.6 -17.45)"  >
<path style="stroke: none; stroke-width: 1; stroke-dasharray: none; stroke-linecap: butt; stroke-dashoffset: 0; stroke-linejoin: miter; stroke-miterlimit: 4; fill: rgb(255,255,255); fill-rule: nonzero; opacity: 1;" vector-effect="non-scaling-stroke"  transform=" translate(-112.97, -42.53)" d="M 121.791 59.2486 C 121.346 59.2486 120.901 58.9516 120.604 58.5068 L 102.954 27.9516 C 102.509 27.3588 102.806 26.468 103.399 26.0231 C 103.992 25.5782 104.882 25.8751 105.327 26.468 L 122.978 57.0231 C 123.423 57.6159 123.126 58.5068 122.533 58.9517 C 122.384 59.2486 122.087 59.2486 121.791 59.2486 Z" stroke-linecap="round" />
</g>
		<g transform="matrix(0.72 0 0 0.72 -129.65 -33.36)"  >
<path style="stroke: none; stroke-width: 1; stroke-dasharray: none; stroke-linecap: butt; stroke-dashoffset: 0; stroke-linejoin: miter; stroke-miterlimit: 4; fill: rgb(255,255,255); fill-rule: nonzero; opacity: 1;" vector-effect="non-scaling-stroke"  transform=" translate(-74.18, -20.54)" d="M 57.4171 21.8705 C 56.6753 21.8705 56.0824 21.2776 56.0824 20.5358 C 56.0824 19.794 56.6753 19.2011 57.4171 19.2011 L 90.9388 19.2011 C 91.6806 19.2011 92.2735 19.794 92.2735 20.5358 C 92.2745 21.2776 91.6806 21.8705 90.7908 21.8705 L 57.4171 21.8705 Z" stroke-linecap="round" />
</g>
		<g transform="matrix(0.72 0 0 0.72 -156.91 -17.5)"  >
<path style="stroke: none; stroke-width: 1; stroke-dasharray: none; stroke-linecap: butt; stroke-dashoffset: 0; stroke-linejoin: miter; stroke-miterlimit: 4; fill: rgb(255,255,255); fill-rule: nonzero; opacity: 1;" vector-effect="non-scaling-stroke"  transform=" translate(-36.5, -42.46)" d="M 27.9003 58.6553 C 27.6034 58.6553 27.4554 58.6553 27.1585 58.5073 C 26.5656 58.0624 26.2687 57.3206 26.7136 56.5788 L 43.9196 26.9136 C 44.3645 26.3208 45.1064 26.0238 45.8482 26.4687 C 46.441 26.9136 46.738 27.6555 46.2931 28.3973 L 29.086 57.9141 C 28.938 58.359 28.4931 58.656 27.9003 58.656 L 27.9003 58.6553 Z" stroke-linecap="round" />
</g>
		<g transform="matrix(0.72 0 0 0.72 -156.91 14.63)"  >
<path style="stroke: none; stroke-width: 1; stroke-dasharray: none; stroke-linecap: butt; stroke-dashoffset: 0; stroke-linejoin: miter; stroke-miterlimit: 4; fill: rgb(255,255,255); fill-rule: nonzero; opacity: 1;" vector-effect="non-scaling-stroke"  transform=" translate(-36.5, -86.88)" d="M 45.1061 103.153 C 44.6612 103.153 44.2163 102.856 43.9194 102.411 L 26.7144 72.746 C 26.2695 72.1532 26.5664 71.2624 27.1593 70.8175 C 27.7521 70.3726 28.6429 70.6695 29.0878 71.2624 L 46.2939 101.076 C 46.7388 101.669 46.4418 102.56 45.849 103.004 C 45.551 103.153 45.2551 103.153 45.1061 103.153 L 45.1061 103.153 Z" stroke-linecap="round" />
</g>
		<g transform="matrix(0.72 0 0 0.72 -129.44 30.59)"  >
<path style="stroke: none; stroke-width: 1; stroke-dasharray: none; stroke-linecap: butt; stroke-dashoffset: 0; stroke-linejoin: miter; stroke-miterlimit: 4; fill: rgb(255,255,255); fill-rule: nonzero; opacity: 1;" vector-effect="non-scaling-stroke"  transform=" translate(-74.47, -108.94)" d="M 91.5321 110.273 L 57.4171 110.273 C 56.6753 110.273 56.0824 109.68 56.0824 108.938 C 56.0824 108.196 56.6753 107.603 57.4171 107.603 L 91.5321 107.603 C 92.2739 107.603 92.8668 108.196 92.8668 108.938 C 92.8668 109.679 92.2739 110.273 91.5321 110.273 Z" stroke-linecap="round" />
</g>
		<g transform="matrix(0.72 0 0 0.72 -101.7 14.74)"  >
<path style="stroke: none; stroke-width: 1; stroke-dasharray: none; stroke-linecap: butt; stroke-dashoffset: 0; stroke-linejoin: miter; stroke-miterlimit: 4; fill: rgb(255,255,255); fill-rule: nonzero; opacity: 1;" vector-effect="non-scaling-stroke"  transform=" translate(-112.82, -87.03)" d="M 104.14 103.45 C 103.843 103.45 103.695 103.45 103.398 103.302 C 102.805 102.857 102.508 102.115 102.953 101.373 L 120.307 71.263 C 120.752 70.6702 121.494 70.3732 122.236 70.8181 C 122.829 71.263 123.125 72.0049 122.681 72.7467 L 105.326 102.708 C 105.178 103.154 104.733 103.45 104.14 103.45 L 104.14 103.45 Z" stroke-linecap="round" />
</g>
		<g transform="matrix(0.72 0 0 0.72 -147.79 -33.36)"  >
<path style="stroke: none; stroke-width: 1; stroke-dasharray: none; stroke-linecap: butt; stroke-dashoffset: 0; stroke-linejoin: miter; stroke-miterlimit: 4; fill: rgb(255,255,255); fill-rule: nonzero; opacity: 1;" vector-effect="non-scaling-stroke"  transform=" translate(-49.11, -20.54)" d="M 49.1109 30.0284 C 43.7712 30.0284 39.618 25.7275 39.618 20.5356 C 39.618 15.1958 43.919 11.0427 49.1109 11.0427 C 54.4506 11.0427 58.6037 15.3436 58.6037 20.5356 C 58.7517 25.7275 54.4506 30.0284 49.1109 30.0284 Z M 49.1109 13.712 C 45.4028 13.712 42.2874 16.8274 42.2874 20.5356 C 42.2874 24.2437 45.4028 27.3591 49.1109 27.3591 C 52.819 27.3591 55.9344 24.2437 55.9344 20.5356 C 55.9344 16.6794 52.9671 13.712 49.1109 13.712 Z" stroke-linecap="round" />
</g>
		<g transform="matrix(0.72 0 0 0.72 -111.2 -33.36)"  >
<path style="stroke: none; stroke-width: 1; stroke-dasharray: none; stroke-linecap: butt; stroke-dashoffset: 0; stroke-linejoin: miter; stroke-miterlimit: 4; fill: rgb(255,255,255); fill-rule: nonzero; opacity: 1;" vector-effect="non-scaling-stroke"  transform=" translate(-99.69, -20.54)" d="M 99.69 30.0284 C 94.3503 30.0284 90.1971 25.7275 90.1971 20.5356 C 90.1971 15.1958 94.4981 11.0427 99.69 11.0427 C 105.03 11.0427 109.183 15.3436 109.183 20.5356 C 109.183 25.7275 105.03 30.0284 99.69 30.0284 Z M 99.69 13.712 C 95.9818 13.712 92.8665 16.8274 92.8665 20.5356 C 92.8665 24.2437 95.9818 27.3591 99.69 27.3591 C 103.398 27.3591 106.514 24.2437 106.514 20.5356 C 106.512 16.6794 103.398 13.712 99.69 13.712 Z" stroke-linecap="round" />
</g>
		<g transform="matrix(0.72 0 0 0.72 -147.79 30.59)"  >
<path style="stroke: none; stroke-width: 1; stroke-dasharray: none; stroke-linecap: butt; stroke-dashoffset: 0; stroke-linejoin: miter; stroke-miterlimit: 4; fill: rgb(255,255,255); fill-rule: nonzero; opacity: 1;" vector-effect="non-scaling-stroke"  transform=" translate(-49.11, -108.94)" d="M 49.1109 118.431 C 43.7712 118.431 39.618 114.13 39.618 108.938 C 39.618 103.598 43.919 99.4449 49.1109 99.4449 C 54.4506 99.4449 58.6037 103.746 58.6037 108.938 C 58.7517 114.129 54.4506 118.431 49.1109 118.431 Z M 49.1109 102.114 C 45.4028 102.114 42.4365 105.23 42.4365 108.938 C 42.4365 112.646 45.5519 115.761 49.26 115.761 C 52.9682 115.761 56.0835 112.646 56.0835 108.938 C 55.9346 105.23 52.9671 102.114 49.1112 102.114 L 49.1109 102.114 Z" stroke-linecap="round" />
</g>
		<g transform="matrix(0.72 0 0 0.72 -111.2 30.59)"  >
<path style="stroke: none; stroke-width: 1; stroke-dasharray: none; stroke-linecap: butt; stroke-dashoffset: 0; stroke-linejoin: miter; stroke-miterlimit: 4; fill: rgb(255,255,255); fill-rule: nonzero; opacity: 1;" vector-effect="non-scaling-stroke"  transform=" translate(-99.69, -108.94)" d="M 99.69 118.431 C 94.3503 118.431 90.1971 114.13 90.1971 108.938 C 90.1971 103.598 94.4981 99.4449 99.69 99.4449 C 105.03 99.4449 109.183 103.746 109.183 108.938 C 109.183 114.129 105.03 118.431 99.69 118.431 Z M 99.69 102.114 C 95.9818 102.114 92.8665 105.23 92.8665 108.938 C 92.8665 112.646 95.9818 115.761 99.69 115.761 C 103.398 115.761 106.514 112.646 106.514 108.938 C 106.512 105.23 103.398 102.114 99.69 102.114 Z" stroke-linecap="round" />
</g>
		<g transform="matrix(0.72 0 0 0.72 -92.32 -1.17)"  >
<path style="stroke: none; stroke-width: 1; stroke-dasharray: none; stroke-linecap: butt; stroke-dashoffset: 0; stroke-linejoin: miter; stroke-miterlimit: 4; fill: rgb(255,255,255); fill-rule: nonzero; opacity: 1;" vector-effect="non-scaling-stroke"  transform=" translate(-125.8, -65.03)" d="M 125.795 74.5261 C 120.456 74.5261 116.302 70.2252 116.302 65.0333 C 116.302 59.6936 120.603 55.5404 125.795 55.5404 C 131.135 55.5404 135.288 59.8414 135.288 65.0333 C 135.288 70.373 130.987 74.5261 125.795 74.5261 Z M 125.795 58.2098 C 122.087 58.2098 118.972 61.3252 118.972 65.0333 C 118.972 68.7414 122.087 71.8568 125.795 71.8568 C 129.503 71.8568 132.619 68.7414 132.619 65.0333 C 132.619 61.3252 129.503 58.2098 125.795 58.2098 Z" stroke-linecap="round" />
</g>
		<g transform="matrix(0.72 0 0 0.72 -166.24 -1.17)"  >
<path style="stroke: none; stroke-width: 1; stroke-dasharray: none; stroke-linecap: butt; stroke-dashoffset: 0; stroke-linejoin: miter; stroke-miterlimit: 4; fill: rgb(255,255,255); fill-rule: nonzero; opacity: 1;" vector-effect="non-scaling-stroke"  transform=" translate(-23.6, -65.03)" d="M 23.5989 74.5261 C 18.2591 74.5261 14.106 70.2252 14.106 65.0333 C 14.106 59.6936 18.4069 55.5404 23.5989 55.5404 C 28.9386 55.5404 33.0917 59.8414 33.0917 65.0333 C 33.2397 70.373 28.9386 74.5261 23.5989 74.5261 Z M 23.5989 58.2098 C 19.8907 58.2098 16.7753 61.3252 16.7753 65.0333 C 16.7753 68.7414 19.8907 71.8568 23.5989 71.8568 C 27.307 71.8568 30.4224 68.7414 30.4224 65.0333 C 30.4224 61.3252 27.4551 58.2098 23.5989 58.2098 Z" stroke-linecap="round" />
</g>
		<g transform="matrix(0.72 0 0 0.72 -79.33 -1.17)"  >
<path style="stroke: none; stroke-width: 1; stroke-dasharray: none; stroke-linecap: butt; stroke-dashoffset: 0; stroke-linejoin: miter; stroke-miterlimit: 4; fill: rgb(255,255,255); fill-rule: nonzero; opacity: 1;" vector-effect="non-scaling-stroke"  transform=" translate(-143.74, -65.03)" d="M 147.896 66.3682 L 139.59 66.3682 C 138.848 66.3682 138.255 65.7754 138.255 65.0335 C 138.255 64.2917 138.848 63.6988 139.59 63.6988 L 147.896 63.6988 C 148.638 63.6988 149.231 64.2917 149.231 65.0335 C 149.231 65.7754 148.638 66.3682 147.896 66.3682 Z" stroke-linecap="round" />
</g>
		<g transform="matrix(0.72 0 0 0.72 -154.55 -44.59)"  >
<path style="stroke: none; stroke-width: 1; stroke-dasharray: none; stroke-linecap: butt; stroke-dashoffset: 0; stroke-linejoin: miter; stroke-miterlimit: 4; fill: rgb(255,255,255); fill-rule: nonzero; opacity: 1;" vector-effect="non-scaling-stroke"  transform=" translate(-39.77, -5)" d="M 41.8429 10.0039 C 41.398 10.0039 40.9531 9.70696 40.6562 9.26206 L 36.5031 2.14269 C 36.0582 1.54983 36.3551 0.659005 36.948 0.214133 C 37.5408 -0.230765 38.4316 0.0661805 38.8765 0.659031 L 43.0296 7.7784 C 43.4745 8.37126 43.1776 9.26208 42.5847 9.70696 C 42.2878 9.85594 42.1399 10.0039 41.8429 10.0039 Z" stroke-linecap="round" />
</g>
		<g transform="matrix(0.72 0 0 0.72 -154.55 42.26)"  >
<path style="stroke: none; stroke-width: 1; stroke-dasharray: none; stroke-linecap: butt; stroke-dashoffset: 0; stroke-linejoin: miter; stroke-miterlimit: 4; fill: rgb(255,255,255); fill-rule: nonzero; opacity: 1;" vector-effect="non-scaling-stroke"  transform=" translate(-39.77, -125.07)" d="M 37.6898 130 C 37.3929 130 37.2449 130 36.948 129.852 C 36.3551 129.407 36.0582 128.665 36.5031 127.923 L 40.6562 120.804 C 41.1011 120.211 41.8429 119.914 42.5847 120.359 C 43.1776 120.804 43.4745 121.546 43.0296 122.288 L 38.8765 129.407 C 38.7286 129.703 38.1347 130 37.6898 130 Z" stroke-linecap="round" />
</g>
		<g transform="matrix(0.72 0 0 0.72 -178.69 -1.17)"  >
<path style="stroke: none; stroke-width: 1; stroke-dasharray: none; stroke-linecap: butt; stroke-dashoffset: 0; stroke-linejoin: miter; stroke-miterlimit: 4; fill: rgb(255,255,255); fill-rule: nonzero; opacity: 1;" vector-effect="non-scaling-stroke"  transform=" translate(-6.39, -65.03)" d="M 10.5462 66.3682 L 2.24021 66.3682 C 1.49837 66.3682 0.905518 65.7754 0.905518 65.0335 C 0.905518 64.2917 1.49837 63.6988 2.24021 63.6988 L 10.5462 63.6988 C 11.288 63.6988 11.8809 64.2917 11.8809 65.0335 C 11.8819 65.7754 11.288 66.3682 10.5462 66.3682 Z" stroke-linecap="round" />
</g>
		<g transform="matrix(0.72 0 0 0.72 -103.47 -44.54)"  >
<path style="stroke: none; stroke-width: 1; stroke-dasharray: none; stroke-linecap: butt; stroke-dashoffset: 0; stroke-linejoin: miter; stroke-miterlimit: 4; fill: rgb(255,255,255); fill-rule: nonzero; opacity: 1;" vector-effect="non-scaling-stroke"  transform=" translate(-110.37, -5.08)" d="M 108.293 10.0039 C 107.996 10.0039 107.848 10.0039 107.551 9.85595 C 106.958 9.41105 106.661 8.66921 107.106 7.92739 L 111.259 0.808021 C 111.704 0.215168 112.446 -0.0817742 113.188 0.363124 C 113.781 0.808022 114.078 1.54986 113.633 2.29168 L 109.48 9.41105 C 109.183 9.70799 108.738 10.0039 108.293 10.0039 Z" stroke-linecap="round" />
</g>
		<g transform="matrix(0.72 0 0 0.72 -103.47 42.21)"  >
<path style="stroke: none; stroke-width: 1; stroke-dasharray: none; stroke-linecap: butt; stroke-dashoffset: 0; stroke-linejoin: miter; stroke-miterlimit: 4; fill: rgb(255,255,255); fill-rule: nonzero; opacity: 1;" vector-effect="non-scaling-stroke"  transform=" translate(-110.37, -125)" d="M 112.446 130 C 112.001 130 111.556 129.703 111.259 129.258 L 107.106 122.139 C 106.661 121.546 106.958 120.655 107.551 120.21 C 108.144 119.765 109.035 120.062 109.48 120.655 L 113.633 127.774 C 114.078 128.367 113.781 129.258 113.188 129.703 C 112.891 130 112.594 130 112.446 130 Z" stroke-linecap="round" />
</g>
		<g transform="matrix(1.65 0 0 1.65 61.57 -9.97)" style=""  >
		<text xml:space="preserve" font-family="Syne" font-size="38" font-style="normal" font-weight="normal" style="stroke: none; stroke-width: 1; stroke-dasharray: none; stroke-linecap: butt; stroke-dashoffset: 0; stroke-linejoin: miter; stroke-miterlimit: 4; fill: rgb(255,255,255); fill-rule: nonzero; opacity: 1; white-space: pre;" ><tspan x="-73.36" y="11.94" >IF Events</tspan></text>
</g>
		<g transform="matrix(1.65 0 0 1.65 71.99 30.49)" style=""  >
		<text xml:space="preserve" font-family="Libre Baskerville" font-size="19" font-style="normal" font-weight="normal" style="stroke: none; stroke-width: 1; stroke-dasharray: none; stroke-linecap: butt; stroke-dashoffset: 0; stroke-linejoin: miter; stroke-miterlimit: 4; fill: rgb(190,229,183); fill-rule: nonzero; opacity: 1; white-space: pre;" ></text>
</g>
</g>
</g>
</svg>